<svg xmlns="http://www.w3.org/2000/svg" viewBox="0 0 305 62.35"><defs><style>.cls-1,.cls-2,.cls-4,.cls-5,.cls-7{fill:#376446;}.cls-2,.cls-4{font-size:24px;}.cls-2,.cls-4,.cls-5,.cls-7{font-family:YuMin-Extrabold-83pv-RKSJ-H, YuMincho;}.cls-2,.cls-6{letter-spacing:0.1em;}.cls-3,.cls-4{letter-spacing:0.1em;}.cls-5,.cls-7{font-size:16px;}.cls-5,.cls-8{letter-spacing:0.1em;}.cls-7{letter-spacing:0.04em;}.cls-9{fill:none;stroke:#376446;stroke-miterlimit:10;stroke-width:0.75px;}</style></defs><g id="レイヤー_2" data-name="レイヤー 2"><g id="レイヤー_1-2" data-name="レイヤー 1"><path class="cls-1" d="M24.56,21.19a15.5,15.5,0,0,0-3.19-2.45c-.52-.2-1.2.35-1.43,1.1s-.55.64-.55.64-1.23-.7-3.35-3.75a15.57,15.57,0,0,1-2.47-4.63s0-.4.61-.55A1.52,1.52,0,0,0,15.31,10a20.84,20.84,0,0,0-1.44-4.24A1.33,1.33,0,0,0,12,5.4a5.43,5.43,0,0,0-2.36,5.41,20.32,20.32,0,0,0,3.48,8.87,15.71,15.71,0,0,0,6.61,5.68c2.83,1.19,4.61-1.65,4.8-1.91A2.17,2.17,0,0,0,24.56,21.19Z"/><text class="cls-2" transform="translate(93.28 23.99)">0173<tspan class="cls-3" x="65.28" y="-2.87">-</tspan><tspan class="cls-3" x="76.65" y="0">74</tspan><tspan class="cls-3" x="109.29" y="-2.87">-</tspan><tspan x="120.67" y="0">2033</tspan></text><text class="cls-4" transform="translate(30.28 23.99)">電話</text><text class="cls-5" transform="translate(124 55.66)">0173<tspan class="cls-6" x="43.52" y="-2">-</tspan><tspan class="cls-6" x="51.1" y="0">74</tspan><tspan x="72.86" y="-2">-</tspan><tspan class="cls-6" x="80.45" y="0">3899</tspan></text><path class="cls-1" d="M40.87,43.12v8a1.22,1.22,0,0,0,1.25,1.19h1.7V41.93h-1.7A1.23,1.23,0,0,0,40.87,43.12Z"/><path class="cls-1" d="M53.48,41.93H44.55V52.31h1.51v3.57h7.51V52.3a1.55,1.55,0,0,0,1.51-1.52V43.46A1.57,1.57,0,0,0,53.48,41.93Zm-7.06,3.94H48v.76H46.42v-.76Zm0,1.58H48v.75H46.42v-.75Zm0,1.57H48v.75H46.42V49Zm6.41,6.15h-6V51h6ZM50.6,47.45v.75H49v-.75ZM49,46.63v-.76H50.6v.76ZM50.6,49v.75H49V49Zm2.6.75H51.64V49H53.2v.75Zm0-1.57H51.64v-.75H53.2v.75Zm0-1.57H51.64v-.76H53.2v.76Zm0-1.54H46.42V43.73H53.2Z"/><rect class="cls-1" x="47.98" y="51.81" width="3.86" height="0.47"/><rect class="cls-1" x="47.98" y="53.04" width="2.51" height="0.47"/><text class="cls-7" transform="translate(69.2 54.49)">F<tspan class="cls-8" x="10.83" y="0">AX</tspan></text><line class="cls-9" y1="29.82" x2="305" y2="29.82"/></g></g></svg>