<svg xmlns="http://www.w3.org/2000/svg" viewBox="0 0 386.3 48.67"><defs><style>.cls-1{font-size:24px;fill:#376446;font-family:YuMin-Extrabold-83pv-RKSJ-H, YuMincho;letter-spacing:0.2em;}.cls-2{letter-spacing:0.5em;}.cls-3{font-size:36px;letter-spacing:0.2em;}.cls-4{fill:#51a649;}.cls-5{fill:#fae04c;}.cls-6{fill:#e08cb2;}.cls-7{fill:#d96829;}</style></defs><g id="レイヤー_2" data-name="レイヤー 2"><g id="レイヤー_1-2" data-name="レイヤー 1"><text class="cls-1" transform="translate(47.9 33.63)">有限会<tspan class="cls-2" x="86.4" y="0">社</tspan><tspan class="cls-3" x="122.4" y="0">吉井造花店</tspan></text><ellipse class="cls-4" cx="15.65" cy="13.53" rx="5.52" ry="15.72" transform="translate(0.6 27.72) rotate(-84.15)"/><ellipse class="cls-5" cx="16.97" cy="25.47" rx="12.13" ry="4.62" transform="translate(-5.64 4.85) rotate(-13.96)"/><ellipse class="cls-6" cx="25.41" cy="34.3" rx="7.82" ry="5.31" transform="translate(-15.66 22.67) rotate(-37.66)"/><path class="cls-7" d="M34.75,32.68A37.17,37.17,0,0,1,14.33,13.53S11.89,8.18,11.89,4.1c0,0-.15-4.1,3.21-4.1,0,0,3-.12,3,3.77,0,0-.09,7.89,3.43,13.36a35.61,35.61,0,0,0,7.77,8.73,10.47,10.47,0,0,1-3.17-1.45s-.7-.62-1.14-.16c0,0-.5.44.37,1.42C25.41,25.67,28,28.91,34.75,32.68Z"/></g></g></svg>