<?xml version="1.0" encoding="utf-8"?>
<!-- Generator: Adobe Illustrator 25.0.1, SVG Export Plug-In . SVG Version: 6.00 Build 0)  -->
<svg version="1.1" id="レイヤー_1" xmlns="http://www.w3.org/2000/svg" xmlns:xlink="http://www.w3.org/1999/xlink" x="0px"
	 y="0px" viewBox="0 0 94.3 110.3" style="enable-background:new 0 0 94.3 110.3;" xml:space="preserve">
<style type="text/css">
	.st0{fill:#1EAA39;}
	.st1{fill:#FFE100;}
	.st2{fill:#E08CB2;}
	.st3{fill:#EA6000;}
</style>
<g id="レイヤー_2_1_">
	<g id="レイヤー_1-2">
		<ellipse transform="matrix(0.1019 -0.9948 0.9948 0.1019 1.6174 75.2173)" class="st0" cx="42.5" cy="36.7" rx="15" ry="42.7"/>
		
			<ellipse transform="matrix(0.9705 -0.2412 0.2412 0.9705 -15.3112 13.1533)" class="st1" cx="46.1" cy="69.1" rx="32.9" ry="12.5"/>
		<ellipse transform="matrix(0.7917 -0.611 0.611 0.7917 -42.4995 61.5168)" class="st2" cx="68.9" cy="93.1" rx="21.2" ry="14.4"/>
		<path class="st3" d="M94.3,88.7c0,0-37-11.8-55.4-52c0,0-6.6-14.5-6.6-25.6c0,0-0.4-11.1,8.7-11.1c0,0,8.2-0.3,8.3,10.2
			c0,0-0.2,21.4,9.3,36.3c0,0,8.5,14.1,21.1,23.7c-3.1-0.8-6-2.1-8.7-3.9c0,0-1.9-1.7-3.1-0.4c0,0-1.4,1.2,1,3.8
			C69,69.7,76.1,78.5,94.3,88.7z"/>
	</g>
</g>
</svg>
