<svg xmlns="http://www.w3.org/2000/svg" viewBox="0 0 1378 230"><defs><style>.cls-1,.cls-28{fill:#65997d;}.cls-2{fill:#fff;}.cls-14,.cls-21,.cls-3,.cls-5,.cls-6{font-size:16px;}.cls-14,.cls-21,.cls-3,.cls-4,.cls-5,.cls-6{fill:#091911;}.cls-3{font-family:YuMin-Medium-83pv-RKSJ-H, YuMincho;}.cls-3,.cls-5,.cls-9{letter-spacing:0.2em;}.cls-14,.cls-21,.cls-28,.cls-5,.cls-6{font-family:YuMin-Demibold-83pv-RKSJ-H, YuMincho;}.cls-11,.cls-6{letter-spacing:-0.3em;}.cls-7{letter-spacing:0.2em;}.cls-8{letter-spacing:-0.05em;}.cls-10{letter-spacing:-0.3em;}.cls-12{letter-spacing:0.04em;}.cls-13{letter-spacing:0.06em;}.cls-14,.cls-27{letter-spacing:0.21em;}.cls-15{letter-spacing:-0.05em;}.cls-16{letter-spacing:-0.13em;}.cls-17{letter-spacing:-0.04em;}.cls-18{letter-spacing:0em;}.cls-19{letter-spacing:-0.03em;}.cls-20{letter-spacing:0.01em;}.cls-21{letter-spacing:-0.01em;}.cls-22{letter-spacing:0.02em;}.cls-23{letter-spacing:0.01em;}.cls-24{letter-spacing:0em;}.cls-25{letter-spacing:0.14em;}.cls-26{letter-spacing:0.17em;}.cls-28{font-size:24px;letter-spacing:0.04em;}.cls-29{letter-spacing:-0.03em;}.cls-30{letter-spacing:0.06em;}.cls-31{letter-spacing:0.13em;}.cls-32{letter-spacing:0.12em;}.cls-33{letter-spacing:0.05em;}.cls-34{letter-spacing:0.08em;}.cls-35{letter-spacing:-0.03em;}.cls-36{letter-spacing:0.03em;}.cls-37{letter-spacing:0.15em;}.cls-38{fill:none;stroke:#65997d;stroke-miterlimit:10;}</style></defs><g id="レイヤー_2" data-name="レイヤー 2"><g id="レイヤー_4" data-name="レイヤー 4"><rect class="cls-1" width="1378" height="230" rx="5"/><rect class="cls-2" x="5" y="5" width="1368" height="220" rx="5"/><text class="cls-3" transform="translate(90.92 102.08)">祭壇</text><rect class="cls-4" x="63.47" y="93.38" width="9.19" height="9.19" transform="translate(-49.35 76.83) rotate(-45)"/><rect class="cls-4" x="63.82" y="131.86" width="8.49" height="8.49" transform="translate(-76.3 87.99) rotate(-45)"/><rect class="cls-4" x="63.82" y="169.47" width="8.49" height="8.49" transform="translate(-102.9 99.01) rotate(-45)"/><text class="cls-5" transform="translate(713.05 141.18)">白木位牌</text><text class="cls-6" transform="translate(90.92 139.28)">棺<tspan class="cls-7" x="11.2" y="0">（仏</tspan><tspan class="cls-8" x="49.6" y="0">衣・枕・</tspan><tspan class="cls-9" x="110.4" y="0">布団</tspan><tspan x="148.8" y="0">）</tspan></text><text class="cls-5" transform="translate(377.78 139.28)">収骨用<tspan class="cls-10" x="57.6" y="0">品</tspan><tspan x="68.8" y="0">（骨箱</tspan><tspan class="cls-11" x="126.4" y="0">、</tspan><tspan class="cls-7" x="137.6" y="0">風呂敷</tspan><tspan class="cls-10" x="195.2" y="0">）</tspan></text><text class="cls-5" transform="translate(1026.92 141.18)">塔婆</text><text class="cls-5" transform="translate(377.78 102.08)">枕<tspan class="cls-12" x="19.2" y="0">飾</tspan><tspan class="cls-13" x="35.89" y="0">り</tspan><tspan class="cls-7" x="52.91" y="0">仏具一式</tspan></text><rect class="cls-4" x="350.33" y="93.38" width="9.19" height="9.19" transform="translate(34.67 279.67) rotate(-45)"/><rect class="cls-4" x="350.33" y="131.5" width="9.19" height="9.19" transform="translate(7.72 290.84) rotate(-45)"/><rect class="cls-4" x="350.33" y="169.12" width="9.19" height="9.19" transform="translate(-18.88 301.85) rotate(-45)"/><text class="cls-14" transform="translate(712.65 102.08)">お<tspan class="cls-7" x="19.41" y="0">線</tspan><tspan class="cls-15" x="38.61" y="0">香</tspan><tspan class="cls-16" x="53.81" y="0">・</tspan><tspan class="cls-17" x="67.66" y="0">ろ</tspan><tspan class="cls-18" x="83.09" y="0">う</tspan><tspan class="cls-19" x="99.04" y="0">そ</tspan><tspan class="cls-20" x="114.59" y="0">く</tspan></text><text class="cls-21" transform="translate(87.69 177.18)">ド<tspan class="cls-22" x="15.76" y="0">ラ</tspan><tspan class="cls-23" x="32.02" y="0">イ</tspan><tspan class="cls-24" x="48.11" y="0">ア</tspan><tspan class="cls-22" x="64.05" y="0">イ</tspan><tspan class="cls-25" x="80.31" y="0">ス</tspan></text><rect class="cls-4" x="683.6" y="93.38" width="9.19" height="9.19" transform="translate(132.29 515.33) rotate(-45)"/><rect class="cls-4" x="683.6" y="131.5" width="9.19" height="9.19" transform="translate(105.33 526.49) rotate(-45)"/><rect class="cls-4" x="683.6" y="169.12" width="9.19" height="9.19" transform="translate(78.73 537.51) rotate(-45)"/><text class="cls-5" transform="translate(713.05 177.18)">参列者用椅子</text><rect class="cls-4" x="996.47" y="93.38" width="9.19" height="9.19" transform="translate(223.92 736.56) rotate(-45)"/><text class="cls-5" transform="translate(1026.92 102.08)">枕<tspan class="cls-12" x="19.2" y="0">飾</tspan><tspan class="cls-13" x="35.89" y="0">り</tspan><tspan class="cls-7" x="52.91" y="0">御供</tspan><tspan class="cls-11" x="91.31" y="0">物</tspan><tspan class="cls-26" x="102.51" y="0">（</tspan><tspan class="cls-27" x="121.31" y="0">お</tspan><tspan class="cls-7" x="140.72" y="0">菓</tspan><tspan class="cls-15" x="159.92" y="0">子・</tspan><tspan class="cls-7" x="190.32" y="0">果</tspan><tspan class="cls-15" x="209.52" y="0">物・</tspan><tspan x="239.92" y="0">花束</tspan><tspan class="cls-10" x="278.32" y="0">）</tspan></text><rect class="cls-4" x="996.47" y="131.5" width="9.19" height="9.19" transform="translate(196.97 747.72) rotate(-45)"/><rect class="cls-4" x="996.47" y="169.12" width="9.19" height="9.19" transform="translate(170.37 758.74) rotate(-45)"/><text class="cls-5" transform="translate(377.78 177.18)">火葬用霊柩車</text><text class="cls-5" transform="translate(1026.92 177.18)">司会進行</text><text class="cls-28" transform="translate(34.78 46.89)">プ<tspan class="cls-29" x="25.06" y="0">ラ</tspan><tspan class="cls-30" x="48.41" y="0">ン</tspan><tspan class="cls-31" x="73.9" y="0">に</tspan><tspan class="cls-32" x="100.94" y="0">含</tspan><tspan class="cls-33" x="127.87" y="0">ま</tspan><tspan class="cls-34" x="153.12" y="0">れ</tspan><tspan class="cls-35" x="179.11" y="0">る</tspan><tspan class="cls-36" x="202.49" y="0">も</tspan><tspan class="cls-37" x="227.14" y="0">の</tspan></text><line class="cls-38" x1="30.5" y1="56.36" x2="302.5" y2="56.36"/></g></g></svg>